<svg xmlns="http://www.w3.org/2000/svg" width="65" height="65" viewBox="0 0 65 65"><path d="M1.9 65A1.932 1.932 0 010 63.1a1.868 1.868 0 011.9-1.9h2.04V40a1.868 1.868 0 011.9-1.9h7.62a1.868 1.868 0 011.9 1.9v21.2h3.81V47.6a1.932 1.932 0 011.9-1.9h7.62a1.941 1.941 0 011.91 1.9v13.6h3.8V32.4a1.876 1.876 0 011.91-1.9h7.62a1.868 1.868 0 011.9 1.9v28.8h3.81V20.9a1.932 1.932 0 011.9-1.9h7.62a1.932 1.932 0 011.9 1.9v40.3h2.04a1.868 1.868 0 011.9 1.9 1.932 1.932 0 01-1.9 1.9H1.9zm17.27-32.6a4.108 4.108 0 01.07-.7l-5.64-2.8a5.64 5.64 0 01-3.95 1.6 5.75 5.75 0 115.71-5.7 4.087 4.087 0 01-.07.6l5.64 2.9a5.64 5.64 0 013.95-1.6 6.531 6.531 0 012.45.5l7.65-7.6a5.951 5.951 0 01-.58-2.5 5.666 5.666 0 018.88-4.7l6.64-5a5.407 5.407 0 01-.28-1.7 5.71 5.71 0 0111.42 0 5.774 5.774 0 01-8.87 4.8l-6.65 4.9a5.946 5.946 0 01.29 1.7 5.76 5.76 0 01-5.71 5.8 6.59 6.59 0 01-2.45-.6l-7.65 7.6a5.951 5.951 0 01.58 2.5 5.715 5.715 0 01-11.43 0z" fill="#fff" fill-rule="evenodd"/></svg>