<svg xmlns="http://www.w3.org/2000/svg" width="79" height="65" viewBox="0 0 79 65"><path d="M76.68 65H2.32A2.273 2.273 0 010 62.8V21.7h79v41.1a2.273 2.273 0 01-2.32 2.2zM53.39 36.8a2.5 2.5 0 00-1.64.7 1.994 1.994 0 000 3l7.62 7.2-7.62 7.1a2.125 2.125 0 00-.68 1.5 2.176 2.176 0 00.68 1.6 2.528 2.528 0 003.27 0l9.26-8.7a2.125 2.125 0 00.68-1.5 2.176 2.176 0 00-.68-1.6l-9.26-8.6a2.453 2.453 0 00-1.63-.7zm-9.26 0a2.413 2.413 0 00-2.07 1.2L32.8 55.4a1.966 1.966 0 00-.14 1.6 2.544 2.544 0 001.18 1.3 3.488 3.488 0 001.03.2 2.4 2.4 0 002.07-1.2L46.2 40a2 2 0 00.14-1.6 1.97 1.97 0 00-1.18-1.3 1.926 1.926 0 00-1.03-.3zm-18.52 0a2.453 2.453 0 00-1.63.7l-9.26 8.6a2.176 2.176 0 00-.68 1.6 2.125 2.125 0 00.68 1.5l9.26 8.7a2.38 2.38 0 001.63.6 2.4 2.4 0 001.64-.6 2.176 2.176 0 00.68-1.6 2.125 2.125 0 00-.68-1.5l-7.62-7.1 7.62-7.2a1.994 1.994 0 000-3 2.5 2.5 0 00-1.64-.7zm-13.88-8.6a2.193 2.193 0 00-2.32 2.1 2.273 2.273 0 002.32 2.2h55.54a2.273 2.273 0 002.32-2.2 2.193 2.193 0 00-2.32-2.1H11.73zM79 17.3H0V2.2A2.273 2.273 0 012.32 0h74.36A2.273 2.273 0 0179 2.2v15.1zM67.27 6.5a2.271 2.271 0 00-2.31 2.2 2.321 2.321 0 004.62 0 2.271 2.271 0 00-2.31-2.2zm-9.26 0a2.271 2.271 0 00-2.31 2.2 2.321 2.321 0 004.62 0 2.271 2.271 0 00-2.31-2.2zm-9.25 0a2.271 2.271 0 00-2.31 2.2 2.321 2.321 0 004.62 0 2.271 2.271 0 00-2.31-2.2zm-37.03 0a2.273 2.273 0 00-2.32 2.2 2.193 2.193 0 002.32 2.1h23.14a2.193 2.193 0 002.32-2.1 2.273 2.273 0 00-2.32-2.2H11.73z" fill="#fff" fill-rule="evenodd"/></svg>