<svg xmlns="http://www.w3.org/2000/svg" width="73" height="65" viewBox="0 0 73 65"><path d="M72.989 65H.011V18.4h42.336L57.581 0h15.408v65zM46.107 46.3l3.49 6.4h4.89l-5.935-10.8 5.935-10.8H49.6l-3.49 6.4-3.491-6.4h-4.89l5.935 10.8-5.935 10.8h4.89l3.49-6.4zM17.628 31.2v13.4a7.911 7.911 0 1015.821 0V31.2h-4.276v13.4a3.635 3.635 0 11-7.269 0V31.2h-4.276zm22.718-17.1H.011V0h52L40.345 14.1zM27.28 4.8v4.3h4.28V4.8h-4.28zm-9.19 0v4.3h4.28V4.8h-4.28zm-9.19 0v4.3h4.28V4.8H8.9z" fill="#fff" fill-rule="evenodd"/></svg>