<svg xmlns="http://www.w3.org/2000/svg" width="72" height="65" viewBox="0 0 72 65"><path d="M29.482 63.8l-26-11.2c-2.222-1-3.5-2.5-3.5-4.1s1.274-3.1 3.5-4.1l4.126-1.8 19.9 8.6a23.275 23.275 0 0016.961 0l19.9-8.6 4.126 1.8c2.222 1 3.5 2.5 3.5 4.1s-1.275 3.1-3.5 4.1l-26 11.2a18.248 18.248 0 01-13.013 0zm0-16l-26-11.2c-2.222-1-3.5-2.5-3.5-4.1s1.274-3.1 3.5-4.1l4.127-1.8 19.9 8.6a23.272 23.272 0 0016.96 0l19.9-8.6 4.126 1.8c2.222 1 3.5 2.5 3.5 4.1s-1.275 3.1-3.5 4.1l-26 11.2a18.248 18.248 0 01-13.013 0zm0-16l-26-11.2c-2.222-1-3.5-2.5-3.5-4.1s1.274-3.1 3.5-4.1l26-11.2a18.25 18.25 0 0113.017 0l26 11.2c2.222 1 3.5 2.5 3.5 4.1s-1.275 3.1-3.5 4.1l-26 11.2a18.248 18.248 0 01-13.017 0z" fill="#fff" fill-rule="evenodd"/></svg>