<svg xmlns="http://www.w3.org/2000/svg" width="65" height="65" viewBox="0 0 65 65"><path d="M45.946 65H12.33v-1.1a3.369 3.369 0 013.362-3.4h26.892a3.369 3.369 0 013.362 3.4V65zm-8.277-6.7H20.608l1.494-4.5h14.073l1.494 4.5zm18.362-6.8H2.246a2.232 2.232 0 01-2.241-2.2V9a2.253 2.253 0 012.241-2.3H26.9v4.5H6.728a2.253 2.253 0 00-2.241 2.3v29.1a2.232 2.232 0 002.241 2.2h44.82a2.232 2.232 0 002.242-2.2v-9h4.482v15.7a2.232 2.232 0 01-2.241 2.2zm-11.2-4.4v2.2h2.24v-2.2h-2.24zm-4.489 0v2.2h2.239v-2.2H40.34zm-4.48 0v2.2h2.24v-2.2h-2.24zm15.688-4.5H6.73V13.5H26.9v16.8a3.348 3.348 0 003.361 3.3h21.29v9zm-4.479-4.5v2.2h2.241v-2.2h-2.241zm-38.1 0v2.2H44.83v-2.2H8.97zm2.24-11.2v6.7h13.446V22.4h-4.482v-6.7h-11.2v11.2h2.241zm52.664 4.5H30.258a1.116 1.116 0 01-1.12-1.1v-5.6H65v5.6a1.116 1.116 0 01-1.126 1.1zm-30.254-4.5v2.2h26.89v-2.2H33.62zm-11.205 4.5h-8.964v-4.5h6.723v-2.2h2.241v6.7zm-4.485-6.8h-6.72v-6.7h6.72v6.7zm47.065-2.2H29.138V1.1a1.116 1.116 0 011.12-1.1h33.616a1.116 1.116 0 011.121 1.1v21.3zM40.344 2.7v17l17.073-8.5-17.073-8.5z" fill="#fff" fill-rule="evenodd"/></svg>