<svg xmlns="http://www.w3.org/2000/svg" width="69" height="65" viewBox="0 0 69 65"><path d="M14.281 65a2.015 2.015 0 01-2.023-2 2.038 2.038 0 012.023-2.1h6.631l1.348-4h24.48l1.348 4h6.631a2.038 2.038 0 012.022 2.1 2.015 2.015 0 01-2.022 2H14.281zM6.058 52.8a6.067 6.067 0 01-6.066-6.1v-2h69.016v2a6.183 6.183 0 01-6.2 6.1H6.058zm62.949-12.2H56.741v-6.1a2.015 2.015 0 00-2.022-2H51.6a11.61 11.61 0 00-.719-1.7l2.211-2.3a1.955 1.955 0 000-2.8l-5.719-5.8a2 2 0 00-2.859 0l-2.211 2.2c-.574-.2-1.156-.5-1.732-.7v-3.1a2.015 2.015 0 00-2.022-2h-8.088a2.015 2.015 0 00-2.022 2v3.1c-.58.2-1.162.5-1.732.7l-2.211-2.2a2 2 0 00-2.859 0l-5.719 5.8a1.955 1.955 0 000 2.8l2.211 2.3a11.72 11.72 0 00-.719 1.7h-3.124a2.015 2.015 0 00-2.023 2v6.1H-.008V6.1A6.067 6.067 0 016.058 0h56.749a6.226 6.226 0 016.2 6.1v34.5zM48.65 14.2a6.07 6.07 0 1012.14 0 6.07 6.07 0 10-12.14 0zm-4.307 26.4a9.187 9.187 0 00.267-2 10.11 10.11 0 10-20.22 0 9.188 9.188 0 00.266 2H16.3v-4h2.6a2.091 2.091 0 001.958-1.6 15.779 15.779 0 011.5-3.6 1.932 1.932 0 00-.312-2.4l-1.839-1.9 2.859-2.9 1.84 1.9a2.053 2.053 0 002.459.3 12.288 12.288 0 013.6-1.5 2.064 2.064 0 001.517-2v-2.6h4.043v2.6a2.065 2.065 0 001.517 2 12.283 12.283 0 013.6 1.5 2.051 2.051 0 002.458-.3l1.84-1.9 2.859 2.9-1.838 1.9a1.932 1.932 0 00-.312 2.4 15.729 15.729 0 011.5 3.6 2.093 2.093 0 001.959 1.6H52.7v4h-8.354zm-15.517 0a5.674 5.674 0 01-.392-2 6.066 6.066 0 1112.132 0 5.674 5.674 0 01-.392 2H28.826z" fill="#fff" fill-rule="evenodd"/></svg>