<svg xmlns="http://www.w3.org/2000/svg" width="18.875" height="14.1" viewBox="0 0 18.875 14.1">
  <metadata><?xpacket begin="﻿" id="W5M0MpCehiHzreSzNTczkc9d"?>
<x:xmpmeta xmlns:x="adobe:ns:meta/" x:xmptk="Adobe XMP Core 5.6-c142 79.160924, 2017/07/13-01:06:39        ">
   <rdf:RDF xmlns:rdf="http://www.w3.org/1999/02/22-rdf-syntax-ns#">
      <rdf:Description rdf:about=""/>
   </rdf:RDF>
</x:xmpmeta>
                                                                                                    
                                                                                                    
                                                                                                    
                                                                                                    
                                                                                                    
                                                                                                    
                                                                                                    
                                                                                                    
                                                                                                    
                                                                                                    
                                                                                                    
                                                                                                    
                                                                                                    
                                                                                                    
                                                                                                    
                                                                                                    
                                                                                                    
                                                                                                    
                                                                                                    
                                                                                                    
                           
<?xpacket end="w"?></metadata>
<defs>
    <style>
      .cls-1 {
        fill: #fff;
        fill-rule: evenodd;
      }
    </style>
  </defs>
  <path id="Icon_awesome-chart-bar" data-name="Icon awesome-chart-bar" class="cls-1" d="M406.3,12005.1H389.18a1.167,1.167,0,0,1-1.18-1.2v-12.3a0.556,0.556,0,0,1,.59-0.6h1.18a0.556,0.556,0,0,1,.591.6v11.2H406.3a0.556,0.556,0,0,1,.59.6v1.1A0.556,0.556,0,0,1,406.3,12005.1Zm-1.063-4.7h-1.416a0.489,0.489,0,0,1-.473-0.5v-8.5a0.477,0.477,0,0,1,.473-0.4h1.416a0.477,0.477,0,0,1,.473.4v8.5A0.489,0.489,0,0,1,405.235,12000.4Zm-3.541,0h-1.417a0.488,0.488,0,0,1-.472-0.5v-4.9a0.486,0.486,0,0,1,.472-0.5h1.417a0.486,0.486,0,0,1,.472.5v4.9A0.488,0.488,0,0,1,401.694,12000.4Zm-3.542,0h-1.416a0.489,0.489,0,0,1-.473-0.5v-7.3a0.566,0.566,0,0,1,.473-0.5h1.416a0.566,0.566,0,0,1,.472.5v7.3A0.488,0.488,0,0,1,398.152,12000.4Zm-3.542,0h-1.416a0.488,0.488,0,0,1-.472-0.5v-2.6a0.476,0.476,0,0,1,.472-0.4h1.416a0.473,0.473,0,0,1,.473.4v2.6A0.489,0.489,0,0,1,394.61,12000.4Z" transform="translate(-388 -11991)"/>
</svg>
