<svg xmlns="http://www.w3.org/2000/svg" width="23.312" height="18.4" viewBox="0 0 23.312 18.4">
  <metadata><?xpacket begin="﻿" id="W5M0MpCehiHzreSzNTczkc9d"?>
<x:xmpmeta xmlns:x="adobe:ns:meta/" x:xmptk="Adobe XMP Core 5.6-c142 79.160924, 2017/07/13-01:06:39        ">
   <rdf:RDF xmlns:rdf="http://www.w3.org/1999/02/22-rdf-syntax-ns#">
      <rdf:Description rdf:about=""/>
   </rdf:RDF>
</x:xmpmeta>
                                                                                                    
                                                                                                    
                                                                                                    
                                                                                                    
                                                                                                    
                                                                                                    
                                                                                                    
                                                                                                    
                                                                                                    
                                                                                                    
                                                                                                    
                                                                                                    
                                                                                                    
                                                                                                    
                                                                                                    
                                                                                                    
                                                                                                    
                                                                                                    
                                                                                                    
                                                                                                    
                           
<?xpacket end="w"?></metadata>
<defs>
    <style>
      .cls-1 {
        fill: #fff;
        fill-rule: evenodd;
      }
    </style>
  </defs>
  <path id="Icon_map-art-gallery" data-name="Icon map-art-gallery" class="cls-1" d="M397.651,11943.2a4.173,4.173,0,0,1-4.292-4.3c0-1.7-1.066-2.4-3.68-2.4a3.455,3.455,0,0,1-2.76-1.3,4.664,4.664,0,0,1-.919-3,7.249,7.249,0,0,1,2.606-4.7,11.021,11.021,0,0,1,7.206-2.7c4.027,0,7.225.7,9.5,2.1a8.588,8.588,0,0,1,3.986,7.7,7.534,7.534,0,0,1-2.836,5.9C404.377,11942.3,401.329,11943.2,397.651,11943.2Zm0-6.1a2.015,2.015,0,0,0-1.3.5,1.858,1.858,0,1,0,3.141,1.3A1.817,1.817,0,0,0,397.651,11937.1Zm-7.665-6.2a1.533,1.533,0,0,0-1.085.5,1.588,1.588,0,0,0-.448,1.1,1.533,1.533,0,0,0,3.066,0,1.6,1.6,0,0,0-.448-1.1A1.535,1.535,0,0,0,389.986,11930.9Zm14.1-1.2a1.534,1.534,0,0,0-1.533,1.5,1.588,1.588,0,0,0,.448,1.1,1.427,1.427,0,0,0,2.17,0,1.572,1.572,0,0,0,0-2.2A1.984,1.984,0,0,0,404.09,11929.7Zm-4.906-2.5a1.557,1.557,0,0,0-1.533,1.6,1.591,1.591,0,0,0,.447,1.1,1.672,1.672,0,0,0,2.17,0,1.572,1.572,0,0,0,0-2.2A1.531,1.531,0,0,0,399.184,11927.2Zm-4.905,0a1.533,1.533,0,0,0-1.085.5,1.594,1.594,0,0,0-.449,1.1,1.534,1.534,0,0,0,3.067,0A1.557,1.557,0,0,0,394.279,11927.2Z" transform="translate(-386 -11924.8)"/>
</svg>
