<svg xmlns="http://www.w3.org/2000/svg" width="22" height="22" viewBox="0 0 22 22">
  <metadata><?xpacket begin="﻿" id="W5M0MpCehiHzreSzNTczkc9d"?>
<x:xmpmeta xmlns:x="adobe:ns:meta/" x:xmptk="Adobe XMP Core 5.6-c142 79.160924, 2017/07/13-01:06:39        ">
   <rdf:RDF xmlns:rdf="http://www.w3.org/1999/02/22-rdf-syntax-ns#">
      <rdf:Description rdf:about=""/>
   </rdf:RDF>
</x:xmpmeta>
                                                                                                    
                                                                                                    
                                                                                                    
                                                                                                    
                                                                                                    
                                                                                                    
                                                                                                    
                                                                                                    
                                                                                                    
                                                                                                    
                                                                                                    
                                                                                                    
                                                                                                    
                                                                                                    
                                                                                                    
                                                                                                    
                                                                                                    
                                                                                                    
                                                                                                    
                                                                                                    
                           
<?xpacket end="w"?></metadata>
<defs>
    <style>
      .cls-1 {
        fill: #fff;
        fill-rule: evenodd;
      }
    </style>
  </defs>
  <path id="history_icon" data-name="history icon" class="cls-1" d="M398.008,11816H398a11.425,11.425,0,0,1-6.9-2.4,1.152,1.152,0,0,1-.392-0.8,1.027,1.027,0,0,1,.311-0.8l0.5-.5a1.067,1.067,0,0,1,.761-0.3,0.793,0.793,0,0,1,.654.2,8.447,8.447,0,0,0,5.071,1.8,8.2,8.2,0,0,0,0-16.4,7.9,7.9,0,0,0-5.592,2.3l2.251,2.2a0.728,0.728,0,0,1,.154.8,0.791,0.791,0,0,1-.656.4h-6.448a0.7,0.7,0,0,1-.709-0.7v-6.4a0.752,0.752,0,0,1,.715-0.8,0.6,0.6,0,0,1,.5.3l2.19,2.1a11.2,11.2,0,0,1,7.6-3,10.805,10.805,0,0,1,7.771,3.2,11.046,11.046,0,0,1,.009,15.6A11.244,11.244,0,0,1,398.008,11816Zm2.126-7.1a1.434,1.434,0,0,1-.653-0.2l-2.9-2.3v-6a1.089,1.089,0,0,1,1.065-1.1h0.71a1.088,1.088,0,0,1,1.064,1.1v4.6l1.805,1.4a1.072,1.072,0,0,1,.187,1.5l-0.436.6A1.268,1.268,0,0,1,400.134,11808.9Z" transform="translate(-387 -11794)"/>
</svg>
