<svg xmlns="http://www.w3.org/2000/svg" width="24.125" height="19.4" viewBox="0 0 24.125 19.4">
  <metadata><?xpacket begin="﻿" id="W5M0MpCehiHzreSzNTczkc9d"?>
<x:xmpmeta xmlns:x="adobe:ns:meta/" x:xmptk="Adobe XMP Core 5.6-c142 79.160924, 2017/07/13-01:06:39        ">
   <rdf:RDF xmlns:rdf="http://www.w3.org/1999/02/22-rdf-syntax-ns#">
      <rdf:Description rdf:about=""/>
   </rdf:RDF>
</x:xmpmeta>
                                                                                                    
                                                                                                    
                                                                                                    
                                                                                                    
                                                                                                    
                                                                                                    
                                                                                                    
                                                                                                    
                                                                                                    
                                                                                                    
                                                                                                    
                                                                                                    
                                                                                                    
                                                                                                    
                                                                                                    
                                                                                                    
                                                                                                    
                                                                                                    
                                                                                                    
                                                                                                    
                           
<?xpacket end="w"?></metadata>
<defs>
    <style>
      .cls-1 {
        fill: #fff;
        fill-rule: evenodd;
      }
    </style>
  </defs>
  <path id="Icon_awesome-laptop-code" data-name="Icon awesome-laptop-code" class="cls-1" d="M406.712,11879.6h-19.3a2.362,2.362,0,0,1-2.413-2.4v-0.6a0.624,0.624,0,0,1,.6-0.6h9.017a1.464,1.464,0,0,0,.367.9,1.355,1.355,0,0,0,.869.3h2.292a1.136,1.136,0,0,0,1.234-1.2h9.14a0.623,0.623,0,0,1,.6.6v0.6A2.361,2.361,0,0,1,406.712,11879.6Zm0-4.8h-19.3v-12.6a1.89,1.89,0,0,1,1.81-1.9H404.9a1.891,1.891,0,0,1,1.811,1.9v12.6h0Zm-16.894-12v9.6H404.3v-9.6H389.82Zm9.265,7.6a0.689,0.689,0,0,1-.426-0.2l-0.427-.4a0.662,0.662,0,0,1,0-.9l1.346-1.3-1.346-1.4a0.467,0.467,0,0,1-.176-0.4,0.631,0.631,0,0,1,.176-0.4l0.427-.4a0.555,0.555,0,0,1,.853,0l2.2,2.2a0.544,0.544,0,0,1,0,.8l-2.2,2.2A0.691,0.691,0,0,1,399.085,11870.4Zm-4.045,0a0.686,0.686,0,0,1-.426-0.2l-2.2-2.2a0.542,0.542,0,0,1,0-.8l2.2-2.2a0.555,0.555,0,0,1,.853,0l0.426,0.4a0.542,0.542,0,0,1,0,.8l-1.345,1.4,1.345,1.3a0.693,0.693,0,0,1,.178.5,0.624,0.624,0,0,1-.178.4l-0.426.4A0.689,0.689,0,0,1,395.04,11870.4Z" transform="translate(-385 -11860.3)"/>
</svg>
