<svg xmlns="http://www.w3.org/2000/svg" width="22" height="22" viewBox="0 0 22 22">
  <metadata><?xpacket begin="﻿" id="W5M0MpCehiHzreSzNTczkc9d"?>
<x:xmpmeta xmlns:x="adobe:ns:meta/" x:xmptk="Adobe XMP Core 5.6-c142 79.160924, 2017/07/13-01:06:39        ">
   <rdf:RDF xmlns:rdf="http://www.w3.org/1999/02/22-rdf-syntax-ns#">
      <rdf:Description rdf:about=""/>
   </rdf:RDF>
</x:xmpmeta>
                                                                                                    
                                                                                                    
                                                                                                    
                                                                                                    
                                                                                                    
                                                                                                    
                                                                                                    
                                                                                                    
                                                                                                    
                                                                                                    
                                                                                                    
                                                                                                    
                                                                                                    
                                                                                                    
                                                                                                    
                                                                                                    
                                                                                                    
                                                                                                    
                                                                                                    
                                                                                                    
                           
<?xpacket end="w"?></metadata>
<defs>
    <style>
      .cls-1 {
        fill: #fff;
        fill-rule: evenodd;
      }
    </style>
  </defs>
  <path id="Icon_awesome-user-graduate" data-name="Icon awesome-user-graduate" class="cls-1" d="M389.356,11751a2.214,2.214,0,0,1-2.356-2.1v-0.4c0-3.1,2.8-5.6,6.315-5.7l4.684,4.1,4.686-4.1c3.511,0.1,6.315,2.6,6.315,5.7v0.4a2.214,2.214,0,0,1-2.358,2.1H389.356Zm2.358-15.1a5.241,5.241,0,0,1,.688-2.5l-3.242-.7v2.3a1.046,1.046,0,0,1,.59.9,1.031,1.031,0,0,1-.545.8l0.766,2.7a0.448,0.448,0,0,1-.374.6h-2.052a0.448,0.448,0,0,1-.374-0.6l0.767-2.7a1.033,1.033,0,0,1-.546-0.8,1.046,1.046,0,0,1,.59-0.9v-2.5l-0.315-.1c-0.888-.2-0.888-1.1,0-1.3l9.36-2a6.375,6.375,0,0,1,1.95,0l9.35,2c0.894,0.2.894,1.1,0,1.3l-4.729,1a5.185,5.185,0,0,1,.688,2.5c0,3-2.814,5.5-6.287,5.5S391.714,11738.9,391.714,11735.9Z" transform="translate(-387 -11729)"/>
</svg>
