<svg xmlns="http://www.w3.org/2000/svg" width="24.125" height="19.4" viewBox="0 0 24.125 19.4"><path data-name="Icon awesome-laptop-code" d="M21.712 19.3h-19.3a2.362 2.362 0 01-2.413-2.4v-.6a.624.624 0 01.6-.6h9.017a1.464 1.464 0 00.367.9 1.355 1.355 0 00.869.3h2.292a1.136 1.136 0 001.234-1.2h9.14a.623.623 0 01.6.6v.6a2.361 2.361 0 01-2.406 2.4zm0-4.8h-19.3V1.9A1.89 1.89 0 014.222 0H19.9a1.891 1.891 0 011.811 1.9v12.6zM4.818 2.5v9.6H19.3V2.5H4.82zm9.265 7.6a.689.689 0 01-.426-.2l-.427-.4a.662.662 0 010-.9l1.346-1.3-1.346-1.4a.467.467 0 01-.176-.4.631.631 0 01.176-.4l.427-.4a.555.555 0 01.853 0l2.2 2.2a.544.544 0 010 .8l-2.2 2.2a.691.691 0 01-.425.2zm-4.045 0a.686.686 0 01-.426-.2l-2.2-2.2a.542.542 0 010-.8l2.2-2.2a.555.555 0 01.853 0l.426.4a.542.542 0 010 .8L9.546 7.3l1.345 1.3a.693.693 0 01.178.5.624.624 0 01-.178.4l-.426.4a.689.689 0 01-.425.2z" fill="#fff" fill-rule="evenodd"/></svg>