<svg xmlns="http://www.w3.org/2000/svg" width="18.875" height="14.1" viewBox="0 0 18.875 14.1"><path data-name="Icon awesome-chart-bar" d="M18.3 14.1H1.18A1.167 1.167 0 010 12.9V.6A.556.556 0 01.59 0h1.18a.556.556 0 01.591.6v11.2H18.3a.556.556 0 01.59.6v1.1a.556.556 0 01-.59.6zm-1.063-4.7h-1.416a.489.489 0 01-.473-.5V.4a.477.477 0 01.473-.4h1.416a.477.477 0 01.473.4v8.5a.489.489 0 01-.475.5zm-3.541 0h-1.417a.488.488 0 01-.472-.5V4a.486.486 0 01.472-.5h1.417a.486.486 0 01.472.5v4.9a.488.488 0 01-.474.5zm-3.542 0H8.738a.489.489 0 01-.473-.5V1.6a.566.566 0 01.473-.5h1.416a.566.566 0 01.472.5v7.3a.488.488 0 01-.474.5zm-3.542 0H5.196a.488.488 0 01-.472-.5V6.3a.476.476 0 01.472-.4h1.416a.473.473 0 01.473.4v2.6a.489.489 0 01-.475.5z" fill="#fff" fill-rule="evenodd"/></svg>