<svg xmlns="http://www.w3.org/2000/svg" width="23.312" height="18.4" viewBox="0 0 23.312 18.4"><path data-name="Icon map-art-gallery" d="M11.651 18.4a4.173 4.173 0 01-4.292-4.3c0-1.7-1.066-2.4-3.68-2.4a3.455 3.455 0 01-2.76-1.3A4.664 4.664 0 010 7.4a7.249 7.249 0 012.606-4.7A11.021 11.021 0 019.812 0c4.027 0 7.225.7 9.5 2.1a8.588 8.588 0 013.986 7.7 7.534 7.534 0 01-2.836 5.9c-2.085 1.8-5.133 2.7-8.811 2.7zm0-6.1a2.015 2.015 0 00-1.3.5 1.858 1.858 0 103.141 1.3 1.817 1.817 0 00-1.841-1.8zM3.986 6.1a1.533 1.533 0 00-1.085.5 1.588 1.588 0 00-.448 1.1 1.533 1.533 0 003.066 0 1.6 1.6 0 00-.448-1.1 1.535 1.535 0 00-1.085-.5zm14.1-1.2a1.534 1.534 0 00-1.533 1.5 1.588 1.588 0 00.448 1.1 1.427 1.427 0 002.17 0 1.572 1.572 0 000-2.2 1.984 1.984 0 00-1.081-.4zM13.18 2.4A1.557 1.557 0 0011.647 4a1.591 1.591 0 00.447 1.1 1.672 1.672 0 002.17 0 1.572 1.572 0 000-2.2 1.531 1.531 0 00-1.08-.5zm-4.905 0a1.533 1.533 0 00-1.085.5A1.594 1.594 0 006.741 4a1.534 1.534 0 003.067 0 1.557 1.557 0 00-1.529-1.6z" fill="#fff" fill-rule="evenodd"/></svg>