<svg xmlns="http://www.w3.org/2000/svg" width="22" height="22" viewBox="0 0 22 22"><path data-name="Icon awesome-user-graduate" d="M2.356 22A2.214 2.214 0 010 19.9v-.4c0-3.1 2.8-5.6 6.315-5.7l4.684 4.1 4.686-4.1c3.511.1 6.315 2.6 6.315 5.7v.4a2.214 2.214 0 01-2.358 2.1H2.356zM4.714 6.9a5.241 5.241 0 01.688-2.5L2.16 3.7V6a1.046 1.046 0 01.59.9 1.031 1.031 0 01-.545.8l.766 2.7a.448.448 0 01-.374.6H.545a.448.448 0 01-.374-.6l.767-2.7a1.033 1.033 0 01-.546-.8 1.046 1.046 0 01.59-.9V3.5l-.315-.1c-.888-.2-.888-1.1 0-1.3l9.36-2a6.375 6.375 0 011.95 0l9.35 2c.894.2.894 1.1 0 1.3l-4.729 1a5.185 5.185 0 01.688 2.5c0 3-2.814 5.5-6.287 5.5S4.714 9.9 4.714 6.9z" fill="#fff" fill-rule="evenodd"/></svg>