<svg xmlns="http://www.w3.org/2000/svg" width="22" height="22" viewBox="0 0 22 22"><path data-name="history icon" d="M11.008 22H11a11.425 11.425 0 01-6.9-2.4 1.152 1.152 0 01-.392-.8 1.027 1.027 0 01.311-.8l.5-.5a1.067 1.067 0 01.761-.3.793.793 0 01.654.2 8.447 8.447 0 005.071 1.8 8.2 8.2 0 000-16.4 7.9 7.9 0 00-5.592 2.3l2.251 2.2a.728.728 0 01.154.8.791.791 0 01-.656.4H.714a.7.7 0 01-.709-.7V1.4A.752.752 0 01.72.6a.6.6 0 01.5.3L3.41 3a11.2 11.2 0 017.6-3 10.805 10.805 0 017.771 3.2 11.046 11.046 0 01.009 15.6 11.244 11.244 0 01-7.782 3.2zm2.126-7.1a1.434 1.434 0 01-.653-.2l-2.9-2.3v-6a1.089 1.089 0 011.065-1.1h.71a1.088 1.088 0 011.064 1.1V11l1.805 1.4a1.072 1.072 0 01.187 1.5l-.436.6a1.268 1.268 0 01-.842.4z" fill="#fff" fill-rule="evenodd"/></svg>