<svg xmlns="http://www.w3.org/2000/svg" width="69" height="65" viewBox="0 0 69 65">
  <metadata><?xpacket begin="﻿" id="W5M0MpCehiHzreSzNTczkc9d"?>
<x:xmpmeta xmlns:x="adobe:ns:meta/" x:xmptk="Adobe XMP Core 5.6-c142 79.160924, 2017/07/13-01:06:39        ">
   <rdf:RDF xmlns:rdf="http://www.w3.org/1999/02/22-rdf-syntax-ns#">
      <rdf:Description rdf:about=""/>
   </rdf:RDF>
</x:xmpmeta>
                                                                                                    
                                                                                                    
                                                                                                    
                                                                                                    
                                                                                                    
                                                                                                    
                                                                                                    
                                                                                                    
                                                                                                    
                                                                                                    
                                                                                                    
                                                                                                    
                                                                                                    
                                                                                                    
                                                                                                    
                                                                                                    
                                                                                                    
                                                                                                    
                                                                                                    
                                                                                                    
                           
<?xpacket end="w"?></metadata>
<defs>
    <style>
      .cls-1 {
        fill: #fff;
        fill-rule: evenodd;
      }
    </style>
  </defs>
  <path id="icon" class="cls-1" d="M540.281,10556a2.015,2.015,0,0,1-2.023-2,2.038,2.038,0,0,1,2.023-2.1h6.631l1.348-4h24.48l1.348,4h6.631a2.038,2.038,0,0,1,2.022,2.1,2.015,2.015,0,0,1-2.022,2H540.281Zm-8.223-12.2a6.067,6.067,0,0,1-6.066-6.1v-2h69.016v2a6.183,6.183,0,0,1-6.2,6.1H532.058Zm62.949-12.2H582.741v-6.1a2.015,2.015,0,0,0-2.022-2H577.6a11.61,11.61,0,0,0-.719-1.7l2.211-2.3a1.955,1.955,0,0,0,0-2.8l-5.719-5.8a2,2,0,0,0-2.859,0l-2.211,2.2c-0.574-.2-1.156-0.5-1.732-0.7v-3.1a2.015,2.015,0,0,0-2.022-2h-8.088a2.015,2.015,0,0,0-2.022,2v3.1c-0.58.2-1.162,0.5-1.732,0.7l-2.211-2.2a2,2,0,0,0-2.859,0l-5.719,5.8a1.955,1.955,0,0,0,0,2.8l2.211,2.3a11.72,11.72,0,0,0-.719,1.7h-3.124a2.015,2.015,0,0,0-2.023,2v6.1H525.992v-34.5a6.067,6.067,0,0,1,6.066-6.1h56.749a6.226,6.226,0,0,1,6.2,6.1v34.5h0Zm-20.357-26.4a6.07,6.07,0,1,0,12.14,0A6.07,6.07,0,1,0,574.65,10505.2Zm-4.307,26.4a9.187,9.187,0,0,0,.267-2,10.11,10.11,0,1,0-20.22,0,9.188,9.188,0,0,0,.266,2H542.3v-4H544.9a2.091,2.091,0,0,0,1.958-1.6,15.779,15.779,0,0,1,1.5-3.6,1.932,1.932,0,0,0-.312-2.4l-1.839-1.9,2.859-2.9,1.84,1.9a2.053,2.053,0,0,0,2.459.3,12.288,12.288,0,0,1,3.6-1.5,2.064,2.064,0,0,0,1.517-2v-2.6h4.043v2.6a2.065,2.065,0,0,0,1.517,2,12.283,12.283,0,0,1,3.6,1.5,2.051,2.051,0,0,0,2.458-.3l1.84-1.9,2.859,2.9-1.838,1.9a1.932,1.932,0,0,0-.312,2.4,15.729,15.729,0,0,1,1.5,3.6,2.093,2.093,0,0,0,1.959,1.6H578.7v4h-8.354Zm-15.517,0a5.674,5.674,0,0,1-.392-2,6.066,6.066,0,1,1,12.132,0,5.674,5.674,0,0,1-.392,2H554.826Z" transform="translate(-526 -10491)"/>
</svg>
