<svg xmlns="http://www.w3.org/2000/svg" width="65" height="65" viewBox="0 0 65 65">
  <metadata><?xpacket begin="﻿" id="W5M0MpCehiHzreSzNTczkc9d"?>
<x:xmpmeta xmlns:x="adobe:ns:meta/" x:xmptk="Adobe XMP Core 5.6-c142 79.160924, 2017/07/13-01:06:39        ">
   <rdf:RDF xmlns:rdf="http://www.w3.org/1999/02/22-rdf-syntax-ns#">
      <rdf:Description rdf:about=""/>
   </rdf:RDF>
</x:xmpmeta>
                                                                                                    
                                                                                                    
                                                                                                    
                                                                                                    
                                                                                                    
                                                                                                    
                                                                                                    
                                                                                                    
                                                                                                    
                                                                                                    
                                                                                                    
                                                                                                    
                                                                                                    
                                                                                                    
                                                                                                    
                                                                                                    
                                                                                                    
                                                                                                    
                                                                                                    
                                                                                                    
                           
<?xpacket end="w"?></metadata>
<defs>
    <style>
      .cls-1 {
        fill: #fff;
        fill-rule: evenodd;
      }
    </style>
  </defs>
  <path id="icon" class="cls-1" d="M965.946,10956H932.33v-1.1a3.369,3.369,0,0,1,3.362-3.4h26.892a3.369,3.369,0,0,1,3.362,3.4v1.1h0Zm-8.277-6.7H940.608l1.494-4.5h14.073l1.494,4.5h0Zm18.362-6.8H922.246a2.232,2.232,0,0,1-2.241-2.2V10900a2.253,2.253,0,0,1,2.241-2.3H946.9v4.5H926.728a2.253,2.253,0,0,0-2.241,2.3v29.1a2.232,2.232,0,0,0,2.241,2.2h44.82a2.232,2.232,0,0,0,2.242-2.2v-9h4.482v15.7A2.232,2.232,0,0,1,976.031,10942.5Zm-11.2-4.4v2.2h2.24v-2.2h-2.24Zm-4.489,0v2.2h2.239v-2.2H960.34Zm-4.48,0v2.2h2.24v-2.2h-2.24Zm15.688-4.5h-44.82v-29.1H946.9v16.8a3.348,3.348,0,0,0,3.361,3.3h21.29v9h0Zm-4.479-4.5v2.2h2.241v-2.2h-2.241Zm-38.1,0v2.2h35.859v-2.2H928.97Zm2.24-11.2v6.7h13.446v-11.2h-4.482v-6.7h-11.2v11.2h2.241Zm52.664,4.5H950.258a1.116,1.116,0,0,1-1.12-1.1v-5.6H985v5.6A1.116,1.116,0,0,1,983.874,10922.4Zm-30.254-4.5v2.2h26.89v-2.2H953.62Zm-11.205,4.5h-8.964v-4.5h6.723v-2.2h2.241v6.7h0Zm-4.485-6.8h-6.72v-6.7h6.72v6.7h0Zm47.065-2.2H949.138v-21.3a1.116,1.116,0,0,1,1.12-1.1h33.616a1.116,1.116,0,0,1,1.121,1.1v21.3h0Zm-24.652-19.7h0v17l17.073-8.5-17.073-8.5h0Z" transform="translate(-920 -10891)"/>
</svg>
