<svg xmlns="http://www.w3.org/2000/svg" width="79" height="65" viewBox="0 0 79 65">
  <metadata><?xpacket begin="﻿" id="W5M0MpCehiHzreSzNTczkc9d"?>
<x:xmpmeta xmlns:x="adobe:ns:meta/" x:xmptk="Adobe XMP Core 5.6-c142 79.160924, 2017/07/13-01:06:39        ">
   <rdf:RDF xmlns:rdf="http://www.w3.org/1999/02/22-rdf-syntax-ns#">
      <rdf:Description rdf:about=""/>
   </rdf:RDF>
</x:xmpmeta>
                                                                                                    
                                                                                                    
                                                                                                    
                                                                                                    
                                                                                                    
                                                                                                    
                                                                                                    
                                                                                                    
                                                                                                    
                                                                                                    
                                                                                                    
                                                                                                    
                                                                                                    
                                                                                                    
                                                                                                    
                                                                                                    
                                                                                                    
                                                                                                    
                                                                                                    
                                                                                                    
                           
<?xpacket end="w"?></metadata>
<defs>
    <style>
      .cls-1 {
        fill: #fff;
        fill-rule: evenodd;
      }
    </style>
  </defs>
  <path id="icon" class="cls-1" d="M1397.68,10556h-74.36a2.273,2.273,0,0,1-2.32-2.2v-41.1h79v41.1A2.273,2.273,0,0,1,1397.68,10556Zm-23.29-28.2a2.5,2.5,0,0,0-1.64.7,1.994,1.994,0,0,0,0,3l7.62,7.2-7.62,7.1a2.125,2.125,0,0,0-.68,1.5,2.176,2.176,0,0,0,.68,1.6,2.528,2.528,0,0,0,3.27,0l9.26-8.7a2.125,2.125,0,0,0,.68-1.5,2.176,2.176,0,0,0-.68-1.6l-9.26-8.6A2.453,2.453,0,0,0,1374.39,10527.8Zm-9.26,0a2.413,2.413,0,0,0-2.07,1.2l-9.26,17.4a1.966,1.966,0,0,0-.14,1.6,2.544,2.544,0,0,0,1.18,1.3,3.488,3.488,0,0,0,1.03.2,2.4,2.4,0,0,0,2.07-1.2l9.26-17.3a2,2,0,0,0,.14-1.6,1.97,1.97,0,0,0-1.18-1.3A1.926,1.926,0,0,0,1365.13,10527.8Zm-18.52,0a2.453,2.453,0,0,0-1.63.7l-9.26,8.6a2.176,2.176,0,0,0-.68,1.6,2.125,2.125,0,0,0,.68,1.5l9.26,8.7a2.38,2.38,0,0,0,1.63.6,2.4,2.4,0,0,0,1.64-.6,2.176,2.176,0,0,0,.68-1.6,2.125,2.125,0,0,0-.68-1.5l-7.62-7.1,7.62-7.2a1.994,1.994,0,0,0,0-3A2.5,2.5,0,0,0,1346.61,10527.8Zm-13.88-8.6a2.193,2.193,0,0,0-2.32,2.1,2.273,2.273,0,0,0,2.32,2.2h55.54a2.273,2.273,0,0,0,2.32-2.2,2.193,2.193,0,0,0-2.32-2.1h-55.54Zm67.27-10.9h-79v-15.1a2.273,2.273,0,0,1,2.32-2.2h74.36a2.273,2.273,0,0,1,2.32,2.2v15.1h0Zm-11.73-10.8a2.271,2.271,0,0,0-2.31,2.2,2.321,2.321,0,0,0,4.62,0A2.271,2.271,0,0,0,1388.27,10497.5Zm-9.26,0a2.271,2.271,0,0,0-2.31,2.2,2.321,2.321,0,0,0,4.62,0A2.271,2.271,0,0,0,1379.01,10497.5Zm-9.25,0a2.271,2.271,0,0,0-2.31,2.2,2.321,2.321,0,0,0,4.62,0A2.271,2.271,0,0,0,1369.76,10497.5Zm-37.03,0a2.273,2.273,0,0,0-2.32,2.2,2.193,2.193,0,0,0,2.32,2.1h23.14a2.193,2.193,0,0,0,2.32-2.1,2.273,2.273,0,0,0-2.32-2.2h-23.14Z" transform="translate(-1321 -10491)"/>
</svg>
