<svg xmlns="http://www.w3.org/2000/svg" width="73" height="65" viewBox="0 0 73 65">
  <metadata><?xpacket begin="﻿" id="W5M0MpCehiHzreSzNTczkc9d"?>
<x:xmpmeta xmlns:x="adobe:ns:meta/" x:xmptk="Adobe XMP Core 5.6-c142 79.160924, 2017/07/13-01:06:39        ">
   <rdf:RDF xmlns:rdf="http://www.w3.org/1999/02/22-rdf-syntax-ns#">
      <rdf:Description rdf:about=""/>
   </rdf:RDF>
</x:xmpmeta>
                                                                                                    
                                                                                                    
                                                                                                    
                                                                                                    
                                                                                                    
                                                                                                    
                                                                                                    
                                                                                                    
                                                                                                    
                                                                                                    
                                                                                                    
                                                                                                    
                                                                                                    
                                                                                                    
                                                                                                    
                                                                                                    
                                                                                                    
                                                                                                    
                                                                                                    
                                                                                                    
                           
<?xpacket end="w"?></metadata>
<defs>
    <style>
      .cls-1 {
        fill: #fff;
        fill-rule: evenodd;
      }
    </style>
  </defs>
  <path id="icon" class="cls-1" d="M586.989,10956H514.011v-46.6h42.336l15.234-18.4h15.408v65h0Zm-26.882-18.7h0l3.49,6.4h4.89l-5.935-10.8,5.935-10.8H563.6l-3.49,6.4-3.491-6.4h-4.89l5.935,10.8-5.935,10.8h4.89l3.49-6.4h0Zm-28.479-15.1v13.4a7.911,7.911,0,1,0,15.821,0v-13.4h-4.276v13.4a3.635,3.635,0,1,1-7.269,0v-13.4h-4.276Zm22.718-17.1H514.011V10891h52l-11.666,14.1h0Zm-13.066-9.3v4.3h4.28v-4.3h-4.28Zm-9.19,0v4.3h4.28v-4.3h-4.28Zm-9.19,0v4.3h4.28v-4.3H522.9Z" transform="translate(-514 -10891)"/>
</svg>
