<svg xmlns="http://www.w3.org/2000/svg" width="65" height="65" viewBox="0 0 65 65">
  <metadata><?xpacket begin="﻿" id="W5M0MpCehiHzreSzNTczkc9d"?>
<x:xmpmeta xmlns:x="adobe:ns:meta/" x:xmptk="Adobe XMP Core 5.6-c142 79.160924, 2017/07/13-01:06:39        ">
   <rdf:RDF xmlns:rdf="http://www.w3.org/1999/02/22-rdf-syntax-ns#">
      <rdf:Description rdf:about=""/>
   </rdf:RDF>
</x:xmpmeta>
                                                                                                    
                                                                                                    
                                                                                                    
                                                                                                    
                                                                                                    
                                                                                                    
                                                                                                    
                                                                                                    
                                                                                                    
                                                                                                    
                                                                                                    
                                                                                                    
                                                                                                    
                                                                                                    
                                                                                                    
                                                                                                    
                                                                                                    
                                                                                                    
                                                                                                    
                                                                                                    
                           
<?xpacket end="w"?></metadata>
<defs>
    <style>
      .cls-1 {
        fill: #fff;
        fill-rule: evenodd;
      }
    </style>
  </defs>
  <path id="icon" class="cls-1" d="M1329.9,10956a1.932,1.932,0,0,1-1.9-1.9,1.868,1.868,0,0,1,1.9-1.9h2.04V10931a1.868,1.868,0,0,1,1.9-1.9h7.62a1.868,1.868,0,0,1,1.9,1.9v21.2h3.81v-13.6a1.932,1.932,0,0,1,1.9-1.9h7.62a1.941,1.941,0,0,1,1.91,1.9v13.6h3.8v-28.8a1.876,1.876,0,0,1,1.91-1.9h7.62a1.868,1.868,0,0,1,1.9,1.9v28.8h3.81v-40.3a1.932,1.932,0,0,1,1.9-1.9h7.62a1.932,1.932,0,0,1,1.9,1.9v40.3h2.04a1.868,1.868,0,0,1,1.9,1.9,1.932,1.932,0,0,1-1.9,1.9h-61.2Zm17.27-32.6a4.108,4.108,0,0,1,.07-0.7l-5.64-2.8a5.64,5.64,0,0,1-3.95,1.6,5.75,5.75,0,1,1,5.71-5.7,4.087,4.087,0,0,1-.07.6l5.64,2.9a5.64,5.64,0,0,1,3.95-1.6,6.531,6.531,0,0,1,2.45.5l7.65-7.6a5.951,5.951,0,0,1-.58-2.5,5.666,5.666,0,0,1,8.88-4.7l6.64-5a5.407,5.407,0,0,1-.28-1.7,5.71,5.71,0,0,1,11.42,0,5.774,5.774,0,0,1-8.87,4.8l-6.65,4.9a5.946,5.946,0,0,1,.29,1.7,5.76,5.76,0,0,1-5.71,5.8,6.59,6.59,0,0,1-2.45-.6l-7.65,7.6a5.951,5.951,0,0,1,.58,2.5A5.715,5.715,0,0,1,1347.17,10923.4Z" transform="translate(-1328 -10891)"/>
</svg>
