<svg xmlns="http://www.w3.org/2000/svg" width="72" height="65" viewBox="0 0 72 65">
  <metadata><?xpacket begin="﻿" id="W5M0MpCehiHzreSzNTczkc9d"?>
<x:xmpmeta xmlns:x="adobe:ns:meta/" x:xmptk="Adobe XMP Core 5.6-c142 79.160924, 2017/07/13-01:06:39        ">
   <rdf:RDF xmlns:rdf="http://www.w3.org/1999/02/22-rdf-syntax-ns#">
      <rdf:Description rdf:about=""/>
   </rdf:RDF>
</x:xmpmeta>
                                                                                                    
                                                                                                    
                                                                                                    
                                                                                                    
                                                                                                    
                                                                                                    
                                                                                                    
                                                                                                    
                                                                                                    
                                                                                                    
                                                                                                    
                                                                                                    
                                                                                                    
                                                                                                    
                                                                                                    
                                                                                                    
                                                                                                    
                                                                                                    
                                                                                                    
                                                                                                    
                           
<?xpacket end="w"?></metadata>
<defs>
    <style>
      .cls-1 {
        fill: #fff;
        fill-rule: evenodd;
      }
    </style>
  </defs>
  <path id="icon" class="cls-1" d="M953.482,10554.8l-26-11.2c-2.222-1-3.5-2.5-3.5-4.1s1.274-3.1,3.5-4.1l4.126-1.8,19.9,8.6a23.275,23.275,0,0,0,16.961,0l19.9-8.6,4.126,1.8c2.222,1,3.5,2.5,3.5,4.1s-1.275,3.1-3.5,4.1l-26,11.2A18.248,18.248,0,0,1,953.482,10554.8Zm0-16-26-11.2c-2.222-1-3.5-2.5-3.5-4.1s1.274-3.1,3.5-4.1l4.127-1.8,19.9,8.6a23.272,23.272,0,0,0,16.96,0l19.9-8.6,4.126,1.8c2.222,1,3.5,2.5,3.5,4.1s-1.275,3.1-3.5,4.1l-26,11.2A18.248,18.248,0,0,1,953.482,10538.8Zm0-16-26-11.2c-2.222-1-3.5-2.5-3.5-4.1s1.274-3.1,3.5-4.1l26-11.2a18.25,18.25,0,0,1,13.017,0l26,11.2c2.222,1,3.5,2.5,3.5,4.1s-1.275,3.1-3.5,4.1l-26,11.2A18.248,18.248,0,0,1,953.482,10522.8Z" transform="translate(-924 -10491)"/>
</svg>
